{"accessors" : [{"bufferView" : 0, "byteOffset" : 0, "componentType" : 5123, "count" : 1260, "type" : "SCALAR", "max" : [1176], "min" : [0]}, {"bufferView" : 1, "byteOffset" : 0, "componentType" : 5126, "count" : 1177, "type" : "VEC3", "max" : [10.42926025390625, 7.700000286102295, 2.7370712757110596], "min" : [-10.429262161254883, -7.700000286102295, 0.07436387240886688], "name" : "POSITION"}, {"bufferView" : 1, "byteOffset" : 12, "componentType" : 5126, "count" : 1177, "type" : "VEC2", "max" : [0.9679524898529053, -0.01999998837709427], "min" : [0.019943952560424805, -0.9232375025749207], "name" : "TEXCOORD_0"}], "asset" : {"generator" : "Aspose.3D 22.7", "version" : "2.0"}, "buffers" : [{"uri" : "data:application/octet-stream;base64,", "byteLength" : 27728}], "bufferViews" : [{"buffer" : 0, "byteOffset" : 0, "byteLength" : 2520, "target" : 34963}, {"buffer" : 0, "byteOffset" : 2524, "byteLength" : 25200, "byteStride" : 20, "target" : 34962}], "images" : [{"uri" : "A_BOOK_T.PNG"}], "materials" : [{"name" : "Material #25", "pbrMetallicRoughness" : {"baseColorFactor" : [0.5843137254901961, 0.5843137254901961, 0.5843137254901961, 1], "baseColorTexture" : {"index" : 0, "texCoord" : 0}, "metallicFactor" : 0, "roughnessFactor" : 0}, "emissiveFactor" : [0, 0, 0], "alphaMode" : "OPAQUE", "doubleSided" : false}], "meshes" : [{"primitives" : [{"attributes" : {"POSITION" : 1, "TEXCOORD_0" : 2}, "indices" : 0, "material" : 0, "mode" : 4}], "name" : "a_Book_002"}], "nodes" : [{"matrix" : [-1.9674999713897705, 0, 0, 0, 0, 0, 1.9674999713897705, 0, 0, 1.9674999713897705, 0, 0, 0, 0, -1.8253963673942053E-08, 1], "mesh" : 0, "name" : "a_Book_002"}], "samplers" : [{"magFilter" : 9729, "minFilter" : 9729, "wrapS" : 10497, "wrapT" : 10497}], "scene" : 0, "scenes" : [{"nodes" : [0]}], "textures" : [{"sampler" : 0, "source" : 0, "name" : ""}]}